<svg xmlns="http://www.w3.org/2000/svg" width="555" height="483" fill="none" viewBox="0 0 555 483">
  <path fill="#EEF8FF" d="M247.716 482.894c132.635 0 240.156-107.521 240.156-240.156 0-132.634-107.521-240.155-240.156-240.155-132.634 0-240.155 107.521-240.155 240.155 0 132.635 107.521 240.156 240.155 240.156Z"/>
  <path fill="#96C8E6" d="M0 444.358h555v-4.271H0v4.271Z"/>
  <path fill="#96C8E6" d="M229.041 10.13c-3.973 0-7.647.696-11.024 1.888C210.369 4.668 199.047 0 186.334 0c-13.508 0-25.526 5.264-32.975 13.508-2.681-.795-5.562-1.192-8.541-1.192-13.11 0-23.837 8.243-24.731 18.672h136.565c-1.192-11.62-13.11-20.857-27.611-20.857Z" opacity=".45"/>
  <path fill="#96C8E6" d="M249.701 15.196c-10.726 0-20.261 4.072-26.518 10.428-1.887-.496-3.973-.695-6.059-.695-11.123 0-20.162 6.953-20.956 15.792h87.302c-1.291-14.302-15.891-25.525-33.769-25.525Zm141.334 24.433c-2.285 0-4.569.496-6.556 1.291-4.469-4.867-11.223-7.946-18.672-7.946-7.945 0-15.096 3.477-19.466 8.94a16.907 16.907 0 0 0-5.066-.795c-7.747 0-14.103 5.462-14.699 12.415h80.747c-.596-7.847-7.648-13.905-16.288-13.905Z" opacity=".45"/>
  <path fill="#E4A79A" d="M96.45 120.674c.198-1.093-12.615-14.7-12.615-14.7s-1.092-.198-4.469-3.774c-2.98-3.178-3.774-7.548-4.966-7.25-2.185.695-.497 5.363 1.59 8.343 1.787 2.483 5.263 4.171 5.065 4.271-.1.099-2.583-1.788-5.165-4.371-3.178-3.277-2.781-9.236-5.165-8.343-1.291.497-.198 6.456 2.483 10.33 2.185 3.178 5.661 4.866 5.562 5.164-.1.298-1.49-1.092-3.476-2.979-3.178-2.98-4.47-7.747-6.059-7.052-1.092.397.696 6.059 3.576 9.237 2.185 2.483 4.966 3.973 4.867 4.271 0 .298-2.682.099-4.172-1.391-2.284-2.185-3.178-6.058-4.668-5.462-.894.397.397 4.767 3.178 7.846 2.483 2.781 6.655 4.37 7.549 5.065 1.887 1.391 7.647 5.463 10.23 6.853 1.887.894 6.157-2.582 6.654-6.058Z"/>
  <path fill="#E4A79A" d="M94.463 119.681c.794-.795.397-3.576-.199-5.165-.794-2.086-3.377-4.569-4.668-5.959-2.086-2.185-5.463-9.336-7.846-9.336-2.285-.1.596 6.157 1.688 7.349 1.093 1.192 1.39 2.285 1.39 2.285s.497 20.36 9.635 10.826Z"/>
  <path stroke="#A84B35" stroke-linecap="round" stroke-linejoin="round" stroke-miterlimit="10" stroke-width=".993" d="M88.106 116.999c-2.88-3.675-2.582-6.357-2.582-6.357s.198-1.589-2.781-5.561c-1.291-1.689-2.384-4.47-1.39-5.364m.794 7.052s-3.774 1.688-4.47 7.747"/>
  <path stroke="#A84B35" stroke-linecap="round" stroke-linejoin="round" stroke-miterlimit="10" stroke-width=".993" d="M71.52 101.406c0 .198 1.688 3.476 3.377 5.363a25.568 25.568 0 0 0 3.972 3.675m-5.462-12.813s.993 6.655 7.548 9.932"/>
  <path fill="#FFA567" d="M173.72 176.194c-.993 1.39-58.996 12.911-73.795-14.7 0 0-17.679-37.046-16.288-37.94l13.408-8.144c1.39-.894 3.178-.398 3.973.894L122.868 146c.298.398 51.448.795 51.448.795 1.589.794-.596 29.399-.596 29.399Z"/>
  <path stroke="#FF7C22" stroke-linecap="round" stroke-linejoin="round" stroke-miterlimit="10" stroke-width=".993" d="M150.578 179.67c-18.175.794-41.913-1.887-50.653-18.176 0 0-17.679-37.046-16.288-37.94l13.408-8.144"/>
  <path fill="#2891D2" d="m108.459 330.254 18.208 9.109 8.132-16.254-18.208-9.11-8.132 16.255Z"/>
  <path fill="#2891D2" d="M126.595 339.42c1.816-3.631-.768-8.602-5.772-11.106-5.003-2.503-10.532-1.589-12.348 2.041-1.816 3.63.768 8.602 5.772 11.105 5.003 2.503 10.532 1.59 12.348-2.04Z"/>
  <path fill="#DBECF7" d="M125.44 338.842c1.571-3.14-.695-7.455-5.061-9.639-4.366-2.185-9.179-1.41-10.749 1.729-1.571 3.14.695 7.456 5.061 9.64s9.178 1.409 10.749-1.73Z"/>
  <path fill="#FF7C22" d="M121.443 336.842c.786-1.569-.328-3.717-2.486-4.797-2.158-1.08-4.545-.683-5.33.887-.785 1.57.328 3.718 2.486 4.798 2.159 1.079 4.545.682 5.33-.888Z"/>
  <path fill="#2891D2" d="m38.013 270.137 13.115 15.573 13.902-11.706-13.114-15.574-13.903 11.707Z"/>
  <path fill="#2891D2" d="M51.008 285.725c3.104-2.615 2.7-8.204-.904-12.483-3.603-4.28-9.042-5.63-12.147-3.015-3.104 2.614-2.7 8.203.904 12.483 3.604 4.279 9.042 5.629 12.147 3.015Z"/>
  <path fill="#DBECF7" d="M50.176 284.737c2.685-2.261 2.313-7.121-.831-10.855-3.145-3.734-7.87-4.929-10.556-2.667-2.685 2.261-2.313 7.121.831 10.855 3.145 3.734 7.87 4.928 10.556 2.667Z"/>
  <path fill="#FF7C22" d="M47.297 281.318c1.343-1.13 1.171-3.543-.383-5.389-1.555-1.846-3.904-2.427-5.246-1.296-1.343 1.131-1.171 3.544.384 5.39 1.554 1.846 3.903 2.426 5.245 1.295Z"/>
  <path fill="#3648AA" d="M161.603 333.914c6.654-.398 11.819-6.158 11.62-12.813a12.406 12.406 0 0 0-12.812-11.918c-.397 0-14.699.099-31.683-9.435-22.645-12.713-60.089-42.708-69.723-62.771-2.98-6.157-10.329-8.74-16.586-5.76-6.158 2.979-8.74 10.329-5.76 16.586 14.202 29.498 60.882 62.969 79.952 73.696 23.241 13.011 42.608 12.713 44.694 12.613.099-.099.198-.099.298-.198Z"/>
  <path fill="#77B7DF" d="M162.795 332.622c6.654-.397 11.819-6.157 11.62-12.812a12.406 12.406 0 0 0-12.812-11.918c-.397 0-14.699.099-31.683-9.436-22.645-12.713-60.089-42.707-69.723-62.77-2.98-6.158-10.33-8.74-16.586-5.76-6.158 2.979-8.74 10.329-5.76 16.586 14.202 29.498 60.882 62.969 79.952 73.695 23.241 13.011 42.608 12.713 44.694 12.614.099-.199.198-.199.298-.199Z"/>
  <path fill="#3648AA" d="M181.566 205.89s-29.2-7.151-44.197-6.257c-3.079.199-5.363 2.682-5.562 5.761-.497 7.449 3.277 13.805 3.277 13.805s38.338 17.48 52.243 15.891c13.805-1.49-5.761-29.2-5.761-29.2Z"/>
  <path fill="#156DC3" stroke="#156DC3" stroke-linecap="round" stroke-linejoin="round" stroke-miterlimit="10" stroke-width=".993" d="M198.153 240.156s3.079 4.27 3.973 3.575c.893-.794-1.59-4.966-1.59-4.966l-2.383 1.391Z"/>
  <path fill="#77B7DF" d="M171.634 199.534s-6.754-2.086-11.521-.795c1.689 10.925 3.874 21.652 9.435 26.816 5.463 5.165 23.937-8.342 23.937-8.342s9.038-7.35-.298-12.117c-9.336-4.668-21.553-5.562-21.553-5.562Z"/>
  <path stroke="#156DC3" stroke-linecap="round" stroke-linejoin="round" stroke-miterlimit="10" stroke-width=".993" d="M160.113 199.335c1.689 10.925 3.973 21.155 9.435 26.32 5.463 5.165 23.937-8.343 23.937-8.343"/>
  <path fill="#3648AA" d="M158.822 232.905c8.144 25.128-3.178 57.407-3.178 57.407l-13.508-5.959 3.178-55.917c.199-3.973 4.966-6.357 8.045-3.774 1.788 1.291 3.675 3.873 5.463 8.243Z"/>
  <path fill="#2891D2" d="m102.706 294.782 44.992 23.141c.596-.397 1.192-1.092 1.788-2.085 2.086-3.477 3.178-10.33 4.469-14.203.1-.497.298-.894.397-1.291.199-.596 3.775-7.747 3.973-8.045.199-.397.298-.695.398-.993.298-1.49-1.093-2.781-2.483-2.583-5.463.894-10.727-6.853-14.501-8.243-.695-.298-1.49.099-1.887.794-.993 1.987-3.774 6.655-7.648 7.648-4.867 1.291-10.726.993-16.586.596-7.648-.596-10.727 1.092-12.018 2.781-1.093 1.291-.894 2.483-.894 2.483Z"/>
  <path fill="#DBECF7" d="m104.196 297.662 40.92 21.056c1.092.596 2.483.199 3.178-.894.497-.695.993-1.49 1.192-1.986L103.6 292.199c-.298.398-.596.994-.795 1.49-.695 1.589-.099 3.278 1.391 3.973Z"/>
  <path stroke="#3648AA" stroke-linecap="round" stroke-linejoin="round" stroke-miterlimit="10" stroke-width=".993" d="m116.611 289.021 3.774 3.576m2.583-3.179 3.774 3.576m1.887-3.973 3.873 3.476m1.788-5.164 3.774 3.476m-2.979-2.682s4.668-9.535 0-10.925c-4.569-1.49-.1 10.925 0 10.925Zm0 0c-.1 0-3.874-10.13-8.84-7.846-4.867 2.284 8.84 7.846 8.84 7.846Zm9.932 30.591-40.821-21.056"/>
  <path fill="#77B7DF" d="m146.506 296.867-.099 1.987c0 .298.099.596.397.794l1.589 1.192c.596.497.497 1.391-.298 1.689l-1.887.596a.897.897 0 0 0-.596.595l-.595 1.888c-.199.695-1.192.893-1.689.198l-1.092-1.688c-.199-.298-.497-.398-.795-.398h-1.986a.9.9 0 0 1-.696-1.489l1.192-1.589c.199-.199.199-.596.199-.894l-.596-1.887c-.199-.696.497-1.391 1.192-1.192l1.887.695c.298.099.596.099.894-.099l1.589-1.192c.496-.497 1.39 0 1.39.794Z"/>
  <path fill="#3648AA" d="M139.852 215.028c-9.634 24.532-38.934 42.211-38.934 42.211l-6.654-13.21 38.04-41.118c2.681-2.98 7.846-1.689 8.64 2.185.398 2.185.298 5.363-1.092 9.932Z"/>
  <path fill="#2891D2" d="m54.04 249.79 41.217 29.398c.695-.298 1.39-.993 2.086-1.787 2.582-3.079 4.569-9.734 6.456-13.409l.596-1.191c.298-.596 4.866-7.052 5.065-7.449.199-.298.397-.696.496-.894.497-1.391-.595-2.98-2.085-2.881-5.562.1-9.634-8.343-13.11-10.23-.696-.397-1.49-.099-1.888.497-1.29 1.887-4.668 6.059-8.64 6.555-5.066.596-10.727-.596-16.487-1.887-7.45-1.688-10.826-.497-12.316.993-1.39 1.093-1.39 2.285-1.39 2.285Z"/>
  <path fill="#DBECF7" d="m55.032 252.869 37.444 26.717c.993.695 2.483.596 3.278-.398.596-.695 1.191-1.39 1.49-1.787L55.23 247.406c-.397.397-.695.894-.993 1.39-.795 1.391-.497 3.179.794 4.073Z"/>
  <path stroke="#3648AA" stroke-linecap="round" stroke-linejoin="round" stroke-miterlimit="10" stroke-width=".993" d="m68.64 246.115 3.277 4.072m2.88-2.781 3.278 4.072m2.483-3.675 3.277 4.072m2.583-4.866 3.178 3.973m-2.583-3.079s5.96-8.84 1.59-10.826c-4.271-2.086-1.689 10.826-1.59 10.826Zm0 0c-.099 0-2.383-10.628-7.548-9.039-5.165 1.589 7.548 9.039 7.548 9.039Zm5.463 31.683-37.443-26.717"/>
  <path fill="#77B7DF" d="m97.045 258.133-.298 1.986c-.1.298 0 .596.298.795l1.39 1.39c.596.497.199 1.49-.496 1.589l-1.987.298a.747.747 0 0 0-.695.497l-.894 1.787c-.298.696-1.291.696-1.688 0l-.894-1.787a.747.747 0 0 0-.695-.497l-1.987-.298c-.794-.099-1.092-1.092-.496-1.589l1.39-1.39c.199-.199.298-.497.298-.795l-.298-1.986c-.1-.795.695-1.391 1.39-.994l1.788.894c.298.1.596.1.894 0l1.788-.894c.497-.298 1.39.298 1.192.994Z"/>
  <path fill="#3648AA" d="M192.591 214.034s-29.896 2.98-43.701 8.939c-2.781 1.192-4.171 4.37-3.377 7.251 2.086 7.151 7.648 11.918 7.648 11.918s41.913 3.575 54.526-2.582c12.713-6.158-15.096-25.526-15.096-25.526Z"/>
  <path fill="#77B7DF" d="M232.418 216.518s8.74 27.908-29.796 27.511c0-9.237-18.97-27.909-31.782-27.71 5.164-4.072 17.579-7.151 17.579-7.151l6.754-1.788c0-.099 37.841-10.329 37.245 9.138Z"/>
  <path stroke="#156DC3" stroke-linecap="round" stroke-linejoin="round" stroke-miterlimit="10" stroke-width=".993" d="M202.423 243.235c0-9.237-19.069-26.916-31.881-26.817 5.164-4.072 18.175-7.349 18.175-7.349l6.754-1.788"/>
  <path fill="#FFA567" d="M178.587 140.041c.596.298 40.721 18.076 55.023 52.143 5.462 11.322 12.812 33.868 1.092 30.888-11.024-2.681-13.904-11.123-29.398-10.23-15.494.894-26.916-8.044-37.146-14.202 3.079-5.463 2.582-5.86 2.582-5.86l-17.877-20.659-7.549-12.315c-.099 0 18.573-27.015 33.273-19.765Z"/>
  <path stroke="#FF7C22" stroke-linecap="round" stroke-linejoin="round" stroke-miterlimit="10" stroke-width=".993" d="M234.901 223.073c-11.024-2.682-13.905-11.124-29.399-10.23-15.494.894-26.915-8.045-37.145-14.203 3.079-5.463 2.582-5.86 2.582-5.86l-17.878-20.659-7.548-12.315s4.469-11.819 32.676-14.799"/>
  <path fill="#E7B5AA" d="m152.664 132.394 5.363-9.436 16.09 24.433-11.223 20.559-7.35-2.383s-1.887-6.258-4.767-11.422c-.199-.398-.397-.696-.596-1.093-1.688-2.88-3.476-5.562-5.165-6.952-.099 0-.099-.1-.198-.1l7.846-13.606Z"/>
  <path fill="#A64B35" d="M152.664 132.394c1.788-1.788 3.377-1.987 4.072.695 2.384 9.733-.695 17.083-5.86 21.056-.198-.398-.397-.695-.595-1.093-1.689-2.88-3.477-5.562-5.165-6.952-.099 0-.099-.1-.199-.1l7.747-13.606Z"/>
  <path fill="#E7B5AA" d="M126.543 101.406c-1.887 2.085-3.278 4.866-4.271 7.945-1.49 4.668-2.085 10.23-1.788 15.693 0 .894.1 1.788.199 2.682.199 1.688.497 3.476.795 5.164.198.894.397 1.689.596 2.583.198.794.496 1.589.794 2.383 5.463 15.097 18.573 17.481 31.187 4.569 4.171-4.271 7.548-9.833 10.329-16.984 1.192-2.979 2.185-6.158 3.079-9.733 5.661-20.46-24.135-33.67-40.92-14.302Z"/>
  <path stroke="#A64B35" stroke-linecap="round" stroke-linejoin="round" stroke-miterlimit="10" stroke-width=".993" d="M129.225 132.393c-2.384.696-3.775-2.284-2.483-3.078 1.092-.696 2.681-3.874 2.88-5.165.397-2.086-.099-4.37-.099-4.37"/>
  <path fill="#290C0F" d="M134.191 120.972c-.298-.993.298-1.987 1.291-2.285 1.092-.397 2.085.199 2.383 1.192.298.993-.298 1.987-1.291 2.285-.993.198-2.085-.199-2.383-1.192Zm-7.449 1.887c.099 1.092-.596 2.085-1.589 2.185-1.093.099-2.086-.596-2.185-1.589-.1-1.093.595-2.086 1.589-2.185.894-.199 1.986.596 2.185 1.589Z"/>
  <path fill="#6B3626" d="M140.646 115.807c-4.072-3.377-8.144 1.291-7.846-.695.298-1.887 1.192-2.284 2.483-2.483 2.284-.397 3.774.397 5.562 2.086.795.794.497 1.589-.199 1.092Z"/>
  <path fill="#B0412B" d="M143.924 123.256c3.973-1.49 5.264-.497 6.257 1.589 1.093 2.682-.596 5.165-2.88 6.853-4.966 3.874-9.733 1.49-8.244-2.979.497-1.49 1.291-3.675 4.867-5.463Zm-23.241 4.172v.298c.199 1.688.497 3.476.795 5.164.198.894.397 1.689.596 2.583.198.794.496 1.589.794 2.383.596-.298 1.291-.695 1.887-1.589 1.391-1.986-1.39-5.76-4.072-8.839Z" opacity=".35"/>
  <path fill="#6B3626" d="M126.543 101.406c-1.887 2.086-3.278 4.867-4.271 8.045 4.37-8.045 18.672-8.641 22.149-7.251 0 0 14.103 12.018 19.963 23.341 1.192-2.98 2.185-6.158 3.079-9.734 5.661-20.559-24.135-33.769-40.92-14.401Z"/>
  <path fill="#591D0B" d="M115.32 105.08c-3.973 11.72-.497 18.673 6.158 27.81-.596-2.582-.894-5.165-1.093-7.846-.298-5.562.298-11.025 1.788-15.693.993-3.178 2.483-5.86 4.271-8.045 1.589-1.787 3.277-3.377 5.065-4.668-8.244-.298-14.898 5.364-16.189 8.442Z"/>
  <path fill="#591D0B" d="m124.358 99.817-6.555 8.144 2.681 5.562s-1.39-4.867 6.456-8.939c8.74-4.569 17.48-2.582 17.48-2.582s-2.681-5.364-13.606-5.364l-6.456 3.179Z"/>
  <path fill="#6B3626" d="M172.429 101.406s10.23 3.476 11.124 23.34c.596 11.918-6.655 15.891-6.655 15.891-.794 1.39-.496 1.49-.496 1.49-10.528.596-18.672-22.745-18.672-22.745l-3.477-.496s-5.86-8.641-21.155-10.925l39.331-6.555Zm-52.441 18.175c-.397-1.688.199-3.476 2.284-4.27 2.583-.894 3.973 2.483 2.781 1.986-5.264-.497-4.171 3.079-5.065 2.284Z"/>
  <path fill="#E7B5AA" d="M159.616 127.428c11.323 2.979 13.607-12.018 7.747-14.203-7.449-2.781-9.733 8.144-9.733 8.144l1.986 6.059Z"/>
  <path stroke="#A64B35" stroke-linecap="round" stroke-linejoin="round" stroke-miterlimit="10" stroke-width=".993" d="M166.768 115.708s-6.754-.795-5.662 6.456"/>
  <path stroke="#A64B35" stroke-linecap="round" stroke-linejoin="round" stroke-miterlimit="10" stroke-width=".993" d="M161.802 117.694c2.483-2.781 5.561 2.582 5.561 2.582"/>
  <path stroke="#591D0B" stroke-miterlimit="10" stroke-width=".993" d="M115.618 106.074s.695-11.82 12.415-14.5"/>
  <path fill="#156DC3" stroke="#3648AA" stroke-linecap="round" stroke-linejoin="round" stroke-miterlimit="10" stroke-width=".993" d="M179.977 101.704s-2.483-29.3-39.43-25.625c-27.412 2.682-30.888 24.83-29.299 34.067 8.144-5.165 17.977-7.548 34.762-5.661 12.613 1.39 27.511 4.171 33.967-2.781Z"/>
  <path fill="#156DC3" stroke="#3648AA" stroke-linecap="round" stroke-linejoin="round" stroke-miterlimit="10" stroke-width=".993" d="M174.316 109.153c3.079-.795 5.761-2.186 7.747-4.371.894-.993.894-2.483-.099-3.376-.994-.894-2.483-.894-3.377.099-4.867 5.264-16.984 3.774-27.711 2.483-1.39-.199-2.78-.298-4.171-.497-15.99-1.787-26.816 0-36.351 6.059a2.397 2.397 0 0 0-.695 3.377 2.399 2.399 0 0 0 3.377.695c8.442-5.363 18.374-6.952 33.172-5.264 1.391.199 2.781.298 4.172.497 8.442.993 17.182 2.085 23.936.298Z"/>
  <path fill="#6B3626" d="M181.368 137.26s-8.045-3.774-8.741-10.627c-.695-6.754 6.655-5.86 10.429-2.185 3.774 3.774 3.178 10.528 2.384 12.316-.795 1.788-4.072.496-4.072.496Z"/>
  <path fill="#7B4C3E" d="M166.569 136.267c-.695-.894-1.092-5.562 4.867-4.469 5.959 1.192 15.196 4.37 9.634 8.641-5.463 4.469-9.932 1.986-14.501-4.172Z"/>
  <path fill="#6B3626" d="M181.268 134.877s7.449-2.185 11.72 2.681c4.271 4.867-1.688 7.052-6.257 6.953-5.86-.1-7.648-4.37-8.144-6.258-.596-1.887 2.681-3.376 2.681-3.376Z"/>
  <path fill="#7B4C3E" d="M182.56 127.924c0-2.582 3.674-3.774 6.157.596 2.483 4.271 5.463 11.621-.099 10.627-5.661-1.092-6.158-4.966-6.058-11.223Z"/>
  <path fill="#6B3626" d="M190.008 131.698c.894-.198 8.741-.198 11.124 4.172 2.384 4.37-6.654 6.257-10.13 1.887-3.477-4.37-2.682-5.761-.994-6.059Z"/>
  <path fill="#7B4C3E" d="M191.796 141.034c.199-1.092 7.052-5.661 10.528-4.072 3.377 1.589 3.576 5.463-1.49 6.555-5.164 1.093-9.832.894-9.038-2.483Z"/>
  <path fill="#6B3626" d="M204.311 133.089s4.37-5.959 2.383-10.032c3.774 2.682 3.079 6.158 3.079 6.158s1.689-6.455 5.86-8.045c3.278 1.292 4.072 2.384 4.072 2.384l-3.476 4.37 5.165-3.476s4.37 2.88 5.164 8.442c-4.767 1.887-4.469 3.476-10.329 4.37 3.973 1.49 10.826-1.291 10.826-1.291s0 3.178-.298 3.476c-1.589 1.291-3.377 2.881-7.449 4.768-4.569 2.185-10.429.298-13.011-2.185-1.688-3.278-1.986-8.939-1.986-8.939Z"/>
  <path fill="#77B7DF" d="M204.807 146.001c1.291-.1 2.384-.994 2.682-2.285 2.483-9.435-4.172-14.103-4.47-14.302-1.39-.993-3.376-.596-4.27.795-.994 1.39-.596 3.277.794 4.271.398.298 3.278 2.582 1.987 7.647-.398 1.689.596 3.377 2.185 3.774.397.1.794.1 1.092.1Z"/>
  <path fill="#3648AA" d="M148.294 108.557s16.189 25.426-1.39 39.628c7.647-3.476 12.812-8.938 12.514-18.473-.298-11.621-3.774-20.162-3.774-20.162l-7.35-.993Z"/>
  <path stroke="#A64B35" stroke-linecap="round" stroke-linejoin="round" stroke-miterlimit="10" stroke-width=".993" d="M142.136 131.599s-1.986 9.733-13.607 5.661"/>
  <path stroke="#FF7C22" stroke-linecap="round" stroke-linejoin="round" stroke-miterlimit="10" stroke-width=".993" d="M190.704 194.171s-6.953 5.462-20.063-1.391"/>
  <path fill="#FFA567" d="M168.853 136.962c-2.979 3.774-9.832 16.785-20.658 21.652 1.688 5.264 3.575 5.661 8.343 5.562 4.767-.1 25.525-16.289 24.532-20.46-.894-3.576-3.377-6.357-9.138-7.747-1.192-.298-2.383.099-3.079.993Z"/>
  <path stroke="#FF7C22" stroke-linecap="round" stroke-linejoin="round" stroke-miterlimit="10" stroke-width=".993" d="M156.24 164.176c4.767-.099 25.525-16.289 24.532-20.46-.894-3.576-3.278-6.158-9.039-7.648"/>
  <path fill="#E4A79A" d="M80.26 158.514c-.199-1.092-13.408-8.243-13.408-8.243s-5.463-1.093-10.13-3.278c-3.974-1.887-6.457-5.462-7.45-4.668-1.887 1.589 2.582 4.966 6.158 7.052 2.681 1.49 5.264 2.582 5.164 2.682-.099.099-3.178-.696-6.654-2.185-4.27-1.887-6.456-7.052-8.045-5.96-1.192.894 2.483 6.854 6.853 8.84 3.178 1.49 6.456 1.887 6.555 2.185 0 .298-2.681-.596-5.264-1.589-3.774-1.49-6.257-4.867-7.548-3.675-.894.795 2.781 4.767 6.754 6.654 3.079 1.49 6.356 2.682 6.456 2.98.099.298-2.583 1.192-4.57.397-3.078-1.192-5.362-4.568-6.554-3.377-.795.795 2.185 4.47 5.959 6.258 3.476 1.688 8.144 1.589 9.237 1.887 2.284.596 9.435 2.085 12.514 2.483 1.887.198 4.767-4.966 3.973-8.443Z"/>
  <path fill="#E4A79A" d="M78.472 156.031c.397-1.092-.993-3.575-2.086-4.866-1.49-1.689-4.866-3.079-6.753-3.874-2.781-1.291-8.74-6.853-11.025-5.959-2.185.795 2.98 5.661 4.37 6.357 1.49.695 2.384 2.284 2.384 2.284s8.045 18.573 13.11 6.058Z"/>
  <path stroke="#A84B35" stroke-linecap="round" stroke-linejoin="round" stroke-miterlimit="10" stroke-width=".993" d="M65.56 149.874s-.297-.795-1.986-1.788c-1.688-.993-3.575-2.483-4.569-4.469m-8.342 16.189s2.383 3.972 11.322 4.27m-13.11-10.925s1.986 2.483 10.627 6.158m-10.428-9.535s2.681 3.675 10.726 5.165"/>
  <path fill="#FFA567" d="M180.772 182.848c-9.336 5.065-43.105 10.031-72.504 1.589l-35.16-11.819c-1.39-.497-2.085-2.086-1.588-3.476l5.959-14.998c.496-1.39 2.582-2.681 3.973-2.085l41.218 10.031c.397.199 51.944-9.833 51.944-9.833 6.356-1.291 17.48 2.384 15.494 17.878-.795 7.35-9.336 12.713-9.336 12.713Z"/>
  <path stroke="#FF7C22" stroke-linecap="round" stroke-linejoin="round" stroke-miterlimit="10" stroke-width=".993" d="M181.07 182.252c-9.336 5.065-43.105 10.031-72.504 1.589l-35.16-11.819c-1.39-.496-2.085-2.086-1.588-3.476l5.959-14.997c.496-1.391 2.086-2.086 3.476-1.589l41.218 10.031c.397.198 52.54-10.429 52.54-10.429"/>
  <path stroke="#156DC3" stroke-linecap="round" stroke-linejoin="round" stroke-miterlimit="10" stroke-width=".993" d="M161.901 243.433s-2.88-8.839-8.244-12.514"/>
  <path fill="#156DC3" d="M153.856 219.795c1.092 0 2.086.497 2.682 1.39 1.688 2.483 4.171 8.244-2.285 14.203-8.74 8.045-10.13 1.788-10.13 1.788s-1.292-10.429 2.185-14.302c2.185-2.483 5.561-2.98 7.548-3.079Z"/>
  <path stroke="#156DC3" stroke-linecap="round" stroke-linejoin="round" stroke-miterlimit="10" stroke-width=".993" d="M137.667 221.285s2.185-7.25-.199-13.21"/>
  <path fill="#156DC3" d="M145.414 199.137c.894.596 1.49 1.589 1.49 2.681 0 2.98-2.682 8.74-11.422 10.23-12.415 2.086-9.336-3.774-9.336-3.774s4.469-9.038 9.435-10.329c3.377-.795 8.144.099 9.833 1.192Z"/>
  <path stroke="#96C8E6" stroke-linecap="round" stroke-linejoin="round" stroke-miterlimit="10" stroke-width=".993" d="M149.486 376.721s-79.158-27.413-118.787-91.275m116.999 104.683S87.51 369.073 47.286 323.882m39.926 48.27s-21.85-12.514-39.629-32.08"/>
  <path fill="#2891D2" d="M275.725 196.853s33.371 5.561 44.495 1.589c11.025-4.072 20.758-37.047 35.954-38.834 15.196-1.788 17.878 24.929 3.079 42.508-14.699 17.481-24.035 27.909-67.637 17.282a.757.757 0 0 1-.497-.199c-7.548-2.383-16.387-6.058-20.459-8.74-1.788-1.192-2.781-4.568-3.079-6.753-.596-3.775.099-8.939 8.144-6.853Z"/>
  <path stroke="#3648AA" stroke-linecap="round" stroke-linejoin="round" stroke-miterlimit="10" stroke-width=".993" d="M282.379 206.784c.795-9.236-6.555-10.031-6.555-10.031s33.371 5.562 44.495 1.589c11.025-4.072 20.758-37.046 35.954-38.834m-85.514 50.852c4.072 2.681 12.911 6.356 20.46 8.74.198.099.397.099.496.199 43.502 10.627 52.838.298 67.637-17.282l7.747-10.528"/>
  <path fill="#E4ACA0" d="M451.617 301.536s-23.042 11.719-17.282 14.302l61.877 26.816 11.024-10.528-8.64-4.668h-.1c-9.733-4.867-33.769-26.22-46.879-25.922Z"/>
  <path fill="#FF944F" d="M518.658 334.212a5.205 5.205 0 0 1 1.192 7.151l-27.81 39.728c-.596.795-1.787.993-2.483.298a32.095 32.095 0 0 1-2.582-2.582c-1.986-2.285-2.88-5.165-.894-14.6 2.384-11.323-.298-17.481.894-21.454 1.192-3.972 9.435-2.681 11.422-10.726.496-1.887-.397-5.661-.099-6.853.496-1.689 1.489-1.689 3.078-.894 7.946 4.072 13.508 7.151 17.282 9.932Z"/>
  <path fill="#94C6E4" d="M518.658 334.212c.795.596 1.589 1.291 2.384 1.986.794.795.894 2.086.198 3.079l-29.1 41.615c-.695.994-2.086 1.093-2.98.398a24.877 24.877 0 0 1-2.284-2.285l31.782-44.793Z"/>
  <path stroke="#A64B35" stroke-linecap="round" stroke-linejoin="round" stroke-width=".993" d="m487.074 355.963 5.86-2.285m-6.356 8.343 5.86-2.284m.496-12.614-5.86 2.285s-4.568 4.668-7.349 4.668c-2.781 0-6.555-9.237 7.051-6.754 0 0-12.911 10.429-5.661 11.323 4.172.595 5.86-11.124 5.86-11.124"/>
  <path fill="#77B7DF" d="M482.009 341.164s11.323-7.25 13.905-20.36c-19.07-11.919-38.238-24.93-49.958-26.419-7.25-.894-13.706 6.356-17.58 12.117-2.681 3.873-1.589 9.236 2.384 11.819 6.853 4.469 21.254 11.918 51.249 22.843Z"/>
  <path fill="#E4ACA0" d="m373.155 328.452 23.936-45.986c-2.681-5.065-24.134-25.525-24.134-25.525-20.957 48.965-22.645 59.394-21.354 65.551l13.507 66.048 14.898 2.98-1.092-9.734v-.099c-1.689-10.727 2.085-42.608-5.761-53.235Z"/>
  <path fill="#FF944F" d="M384.874 402.147c0 2.88-2.384 5.065-5.264 5.065h-48.567c-.994 0-1.788-.894-1.689-1.887.1-1.192.298-2.384.596-3.576.695-2.979 2.583-5.363 11.422-9.137 10.627-4.569 14.203-10.23 18.076-11.621 3.973-1.291 7.648 6.258 15.295 3.179 1.888-.696 4.371-3.576 5.562-3.973 1.689-.596 2.185.298 2.483 2.086 1.49 8.839 2.185 15.195 2.086 19.864Z"/>
  <path fill="#94C6E4" d="M384.875 402.147c0 1.092-.099 2.085-.298 3.079-.199 1.092-1.192 1.986-2.384 1.986h-50.752c-1.192 0-2.086-.993-1.987-2.185.1-1.093.298-2.185.596-3.178l54.825.298Z"/>
  <path stroke="#A64B35" stroke-linecap="round" stroke-linejoin="round" stroke-width=".993" d="m348.923 388.738 5.264 3.476m-10.529-.397 5.264 3.477m10.628-6.754-5.264-3.476s-6.456-.993-8.045-3.278c-1.589-2.284 3.874-10.627 9.634 1.887 0 0-15.891-4.568-12.514 1.887 1.986 3.775 12.514-1.589 12.514-1.589"/>
  <path fill="#77B7DF" d="m370.076 246.909-21.851 65.949c-.297.794-.397 1.589-.496 2.383-.497 5.562 3.277 10.926 9.137 11.82l20.758 3.476 23.936-52.143 27.313 38.039 29.101-16.983s-17.381-28.307-26.618-45.29c-7.945-14.6-14.5-27.115-23.439-24.83-19.566 4.767-37.841 17.579-37.841 17.579Z"/>
  <path fill="#2891D2" d="M385.87 250.386c-4.47 1.688-31.087 4.866-31.981-2.881 0 0-8.84-76.575-7.35-77.767 1.589-1.192 8.144-9.634 10.031-10.131l18.077-3.774c28.505-4.171 33.57 4.072 35.755 12.018l5.86 63.167c-3.774 11.521-30.392 19.368-30.392 19.368Z"/>
  <path stroke="#3648AA" stroke-linecap="round" stroke-linejoin="round" stroke-miterlimit="10" stroke-width=".993" d="M416.46 230.919c-3.972 11.62-30.491 19.367-30.491 19.367-4.469 1.689-31.087 4.867-31.981-2.88 0 0-4.569-39.132-6.555-61.876"/>
  <path stroke="#C1DDEF" stroke-miterlimit="10" stroke-width=".993" d="m428.476 315.937-31.882-43.8s-5.562-5.165-10.329-4.867m14.502-22.148c4.569 10.13 15.693 4.171 15.693 4.171l29.299 53.434s38.437 26.221 44.197 30.789"/>
  <path fill="#77B7DF" d="M358.16 376.125s12.415 5.164 24.631-.199c-1.192-22.446-1.49-45.588-7.052-56.116-5.562-10.528-27.511-6.853-27.511-6.853s-4.966 7.648 9.932 63.168Z"/>
  <path fill="#2891D2" d="M318.034 208.373s33.868-.099 44.098-5.959c10.23-5.86 14.203-39.927 28.902-44.297 14.699-4.37 21.751 21.553 10.23 41.317-11.521 19.765-18.97 31.584-63.664 28.406-.199 0-.398 0-.596-.099-7.846-1.093-17.183-3.179-21.652-5.165-1.986-.894-3.476-4.072-4.171-6.158-1.192-3.575-1.391-8.641 6.853-8.045Z"/>
  <path stroke="#3648AA" stroke-linecap="round" stroke-linejoin="round" stroke-miterlimit="10" stroke-width=".993" d="M326.277 217.114c-.794-9.237-8.144-8.741-8.144-8.741s33.868-.099 44.098-5.959c10.23-5.86 14.203-39.926 28.902-44.296 0 0 2.98-1.888 9.634-.894m-85.415 65.352c4.469 1.987 13.805 4.072 21.652 5.165.198 0 .397 0 .596.099 44.694 3.178 52.143-8.641 63.664-28.405l5.86-11.72"/>
  <path fill="#3648A8" d="M257.748 399.266h-.298c-.993-.198-1.688-1.092-1.49-2.085l31.783-180.167c.198-.993 1.092-1.688 2.085-1.49.993.199 1.689 1.093 1.49 2.086l-31.782 180.167c-.1.893-.894 1.489-1.788 1.489Z"/>
  <path fill="#288FD0" d="M258.245 398.174c-.696 0-1.49-.199-2.086-.497-.695-.298-1.192-.794-1.689-1.291a4.962 4.962 0 0 1-.993-1.887c-.198-.695-.198-1.39-.099-2.185l16.487-91.573 9.634 1.887-16.487 91.573c-.199 1.093-.795 2.086-1.688 2.88-.894.696-1.987 1.093-3.079 1.093Z"/>
  <path fill="#3648A8" d="M251.59 440.286c9.932 0 17.977-8.045 17.977-17.977s-8.045-17.977-17.977-17.977-17.977 8.045-17.977 17.977 8.045 17.977 17.977 17.977Zm181.16 0c9.932 0 17.977-8.045 17.977-17.977s-8.045-17.977-17.977-17.977-17.977 8.045-17.977 17.977 8.045 17.977 17.977 17.977Z"/>
  <path fill="#288FD0" d="M408.019 407.212H277.413v15.494h130.606v-15.494Z"/>
  <path fill="#146DC1" d="M399.18 407.212c-.298 1.788-1.192 3.476-2.583 4.668a7.788 7.788 0 0 1-5.065 1.887h-100.71a7.79 7.79 0 0 1-5.066-1.887c-1.39-1.192-2.383-2.88-2.582-4.668H399.18Z"/>
  <path fill="#2891D2" d="M251.59 430.85a8.435 8.435 0 0 0 8.442-8.442 8.435 8.435 0 0 0-8.442-8.442 8.435 8.435 0 0 0-8.442 8.442c0 4.569 3.774 8.442 8.442 8.442Zm181.358 0a8.436 8.436 0 0 0 8.443-8.442 8.436 8.436 0 0 0-8.443-8.442 8.435 8.435 0 0 0-8.442 8.442c0 4.569 3.774 8.442 8.442 8.442Z"/>
  <path fill="#288FD0" d="M458.275 427.275c-2.582 0-4.668-2.086-4.767-4.668 0-4.867-1.689-9.635-4.768-13.409-1.887-2.383-4.37-4.37-7.151-5.661a20.455 20.455 0 0 0-8.74-1.986h-.199c-5.562 0-10.925 2.185-14.798 6.158-3.973 3.972-6.059 9.137-6.059 14.798 0 2.583-2.086 4.768-4.767 4.768-2.583 0-4.768-2.086-4.768-4.768 0-8.045 3.179-15.692 8.84-21.453 5.661-5.661 13.507-8.839 21.453-8.839 4.469 0 8.939.993 13.011 2.88 4.072 1.887 7.648 4.767 10.429 8.243 4.37 5.463 6.853 12.316 6.853 19.368.099 2.384-1.987 4.569-4.569 4.569Zm-181.06-.199c-2.583 0-4.768-2.086-4.768-4.668 0-4.37-1.291-8.442-3.774-12.018-2.483-3.575-5.959-6.157-10.031-7.647-4.072-1.49-8.442-1.589-12.614-.497-4.171 1.192-7.846 3.476-10.528 6.853-1.688 1.987-4.668 2.285-6.654.695-1.987-1.688-2.284-4.668-.695-6.654 3.972-4.867 9.336-8.343 15.394-9.932 6.059-1.688 12.415-1.49 18.275.695 5.959 2.086 10.925 5.959 14.6 11.025 3.576 5.164 5.562 11.124 5.562 17.48-.099 2.582-2.185 4.668-4.767 4.668Z"/>
  <path stroke="#146DC1" stroke-linecap="round" stroke-miterlimit="10" stroke-width=".993" d="M253.378 392.314c19.169 0 27.511 17.48 28.207 29.895m120.078.795c0-13.806 10.726-30.69 29.994-30.69"/>
  <path fill="#288FD0" d="M279.795 213.737c.695-2.086 1.887-3.973 3.476-5.562 0-.696.496-.994.596-1.689l-20.758-7.449c-.596-.198-1.291-.397-1.887-.298-.696 0-1.291.199-1.887.497-.596.298-1.093.695-1.59 1.192-.397.496-.794 1.092-.993 1.688a6.256 6.256 0 0 0-.298 1.887c0 .695.199 1.291.497 1.887a4.39 4.39 0 0 0 1.192 1.49c.496.397 1.092.795 1.688.894l21.255 7.449c.198-.497-1.391-1.589-1.291-1.986Z"/>
  <path fill="#5664AD" d="M298.863 222.874c-.695 0-1.39-.099-1.986-.397l-16.587-5.86c-1.49-.497-2.781-1.689-3.476-3.079-.695-1.49-.794-3.079-.298-4.668.497-1.49 1.689-2.781 3.079-3.476 1.49-.696 3.079-.795 4.668-.298l16.587 5.86c1.39.496 2.483 1.39 3.178 2.681a6.44 6.44 0 0 1 .794 4.072c-.298 1.391-.993 2.682-2.085 3.576-1.093 1.092-2.483 1.589-3.874 1.589Z"/>
  <path fill="#5664AD" d="M298.863 210.856c-1.589 0-3.079.596-4.171 1.788-1.093 1.092-1.788 2.582-1.788 4.171 0 1.59.695 3.079 1.788 4.172 1.092 1.092 2.582 1.788 4.171 1.788 1.291-.1 2.582-.497 3.576-1.292"/>
  <path stroke="#3648A8" stroke-linecap="round" stroke-miterlimit="10" stroke-width=".993" d="M298.863 210.856c-1.589 0-3.079.596-4.171 1.788-1.093 1.092-1.788 2.582-1.788 4.171 0 1.59.695 3.079 1.788 4.172 1.092 1.092 2.582 1.788 4.171 1.788 1.291-.1 2.582-.497 3.576-1.292"/>
  <path fill="#5664AD" d="M282.079 204.897c-1.489 0-2.88.497-3.972 1.49a6.121 6.121 0 0 0-1.987 3.774c-.199 1.49.199 2.88 1.093 4.072.894 1.192 2.085 1.986 3.575 2.384"/>
  <path stroke="#3648A8" stroke-linecap="round" stroke-miterlimit="10" stroke-width=".993" d="M282.079 204.897c-1.489 0-2.88.497-3.972 1.49a6.121 6.121 0 0 0-1.987 3.774c-.199 1.49.199 2.88 1.093 4.072.894 1.192 2.085 1.986 3.575 2.384"/>
  <path fill="#288FD0" d="m322.901 219.795-22.347-7.548c.298.894.298 1.788 0 2.582-.298.894-.795 1.59-1.49 2.086-.198.596-.397 1.291-.596 1.887-.298.894-.099 1.887-.695 2.384l21.95 7.648c1.192.397 2.483.297 3.675-.298 1.092-.596 1.986-1.59 2.383-2.781.398-1.192.397-2.483-.198-3.675-.497-.993-1.49-1.887-2.682-2.285Z"/>
  <path fill="#288FD0" d="M299.26 221.682a4.875 4.875 0 0 0 4.867-4.867 4.874 4.874 0 0 0-4.867-4.866 4.874 4.874 0 0 0-4.866 4.866 4.874 4.874 0 0 0 4.866 4.867Z"/>
  <path fill="#3648AA" d="M321.313 229.131a4.874 4.874 0 0 0 4.866-4.867 4.874 4.874 0 0 0-4.866-4.866 4.874 4.874 0 0 0-4.867 4.866c.099 2.781 2.185 4.867 4.867 4.867Z"/>
  <path fill="#E2A598" d="M275.325 197.25c-2.284-.894-6.754-2.583-8.542-1.987-1.191.397-3.376 2.185-5.164 4.668-1.788 2.583-3.079 5.959-2.185 7.151 1.092 1.49 3.377-3.873 3.377-3.873s-1.59 5.264-.398 5.86c1.192.596 3.576-4.569 3.576-4.569s-1.788 5.264-.596 5.86c1.192.596 3.774-4.668 3.774-4.668s-1.788 5.562-.695 5.661c2.086.397 3.377-4.171 5.164-5.959 1.788-1.788 3.973-1.192 5.562-.795 2.583.795 1.391-5.462-3.873-7.349Z"/>
  <path stroke="#A64B35" stroke-linecap="round" stroke-linejoin="round" stroke-width=".993" d="M262.712 203.904c.795-1.49 1.589-2.98 2.583-4.37m2.681 1.49c-.894 1.489-1.589 2.979-2.284 4.568m3.177 1.093c1.291-3.079 1.887-4.668 2.185-4.768"/>
  <path fill="#E7B5AA" d="M316.446 210.261c-1.986-.696-3.973-.596-3.973-.596s-4.966-.993-7.25 0c-1.093.496-3.178 2.483-4.668 5.164-1.49 2.682-2.483 6.258-1.49 7.35 1.192 1.391 2.98-4.171 2.98-4.171s-1.093 5.363.198 5.959c1.192.496 3.179-4.867 3.179-4.867s-1.192 5.363 0 5.959c1.191.497 3.277-5.065 3.277-5.065s-1.291 5.661-.199 5.761c2.086.198 2.98-4.47 4.569-6.456 1.589-1.887 7.151-1.589 9.734-1.192 1.191-6.257-4.371-7.151-6.357-7.846Z"/>
  <path stroke="#A64B35" stroke-linecap="round" stroke-linejoin="round" stroke-width=".993" d="M301.944 218.603c.596-1.589 1.291-3.178 2.185-4.668m2.879 1.292c-.695 1.589-1.291 3.178-1.887 4.767m3.278.894c.994-3.179 1.391-4.768 1.788-4.966"/>
  <path fill="#E7B5AA" d="M372.56 166.758c-9.336 4.172-11.918-3.575-11.918-3.575s1.788-.894.596-5.264c-.695-2.384-1.589-4.668-2.881-6.754l7.946-9.634 7.151-8.74 8.343 23.241c.099 0 .099 6.555-9.237 10.726Z"/>
  <path fill="#A64B35" d="M370.574 143.021c-1.291 8.541-6.357 12.713-9.336 14.898-.695-2.384-1.589-4.668-2.881-6.754l7.946-9.634 4.271 1.49Z"/>
  <path fill="#E7B5AA" d="M378.619 129.513c-4.172 7.35-4.271 9.535-10.627 15.991-10.131 10.329-22.844 10.727-27.214 9.038-4.271-1.688-8.144-7.648-9.535-14.699-.199-.894-.298-1.788-.397-2.682a274.07 274.07 0 0 1-.298-2.88c-.099-1.887-.099-3.874-.099-5.761 0-.993.099-1.986.198-2.979.497-5.86 2.086-11.621 4.569-16.885 1.49-3.079 3.476-5.76 6.058-8.045 21.454-18.374 39.133 25.625 37.345 28.902Z"/>
  <path stroke="#A64B35" stroke-linecap="round" stroke-linejoin="round" stroke-width=".993" d="M341.374 121.27a13.14 13.14 0 0 1-.596 4.767 5.542 5.542 0 0 1-.894 1.689c-.397.496-.993.893-1.589 1.191-1.49.696-.596 3.377 2.284 3.775"/>
  <path fill="#290C0F" d="M348.823 124.944c.397 0 .794-.198 1.092-.496.298-.298.497-.596.596-.993.099-.298.099-.497.099-.795 0-.298-.099-.496-.298-.794-.099-.199-.298-.398-.596-.596-.198-.1-.496-.298-.794-.298h-.795a1.87 1.87 0 0 0-.794.198c-.298.1-.497.298-.596.497-.199.199-.298.497-.397.794-.1.298-.1.596 0 .795 0 .298.099.497.298.795.198.397.595.596.993.794.298.199.794.199 1.192.099Zm-13.011-2.88c-.398 0-.795.1-1.192.298-.397.199-.596.596-.795.894-.198.397-.198.795-.099 1.192.099.397.298.794.596 1.092.298.298.695.497 1.092.596.398.1.795 0 1.192-.099.398-.099.695-.397.993-.795.199-.397.398-.794.398-1.191 0-.596-.298-1.093-.596-1.49-.596-.199-1.093-.497-1.589-.497Z"/>
  <path fill="#6B3626" d="M354.484 117.197c-1.589-2.284-2.98-2.78-5.463-2.78-1.489 0-2.781.496-2.781 1.291-.099 3.079 3.477-1.987 8.542 4.072.497.596.099-1.887-.298-2.583Z"/>
  <path fill="#B0412B" d="M350.412 132.493c-2.384 4.668 2.483 8.045 8.541 4.569 2.781-1.49 4.966-3.973 4.271-7.052-.695-2.384-1.986-3.675-6.555-2.781-4.271 1.589-5.463 3.774-6.257 5.264Zm-16.885 5.959a4.225 4.225 0 0 1-2.284 1.391c-.199-.894-.298-1.788-.397-2.682a274.07 274.07 0 0 1-.298-2.88c-.099-1.887-.099-3.874-.099-5.761 0-.099 0-.199.099-.397 2.483 3.774 4.867 8.343 2.979 10.329Z" opacity=".35"/>
  <path fill="#A64B35" stroke="#A64B35" stroke-linecap="round" stroke-linejoin="round" stroke-width=".993" d="M346.24 135.771c10.926-1.788 2.98 7.647-1.986 7.647-4.867-.099-11.819-5.462 1.986-7.647Z"/>
  <path fill="#fff" stroke="#A64B35" stroke-linecap="round" stroke-linejoin="round" stroke-width=".993" d="M347.234 139.247c1.092 0 2.185.198 3.277.496 1.987-2.383 1.987-5.164-4.271-4.072-7.945 1.291-8.938 3.774-7.449 5.562.497-1.291 6.357-2.284 8.443-1.986Z"/>
  <path fill="#6B3626" d="M380.208 147.093c-.695.596-1.49.993-1.887.099-1.788-3.774-4.569-10.329-2.98-12.117-.199-2.284 2.781-2.781 2.086-4.866 1.887-3.278 3.476 2.185 4.966-1.192 8.74-19.368-32.378-30.492-47.872-18.672-9.138-1.788-14.799-6.655-10.628-19.17 6.158 3.676 9.535 2.087 20.262-6.157 20.36-13.706 29.1 6.356 29.1 6.356 32.18-5.66 25.327 40.523 6.953 55.719Z"/>
  <path fill="#6B3626" d="M341.274 100.71c24.632-24.134 52.044.894 42.311 22.347-1.49 3.477-3.079 6.854-4.966 10.131-1.093-3.277-4.271-7.846-4.271-7.846s-2.781.596-5.264.198c-5.264-4.27-8.442-21.055-8.442-21.055-3.576-2.086-19.368-3.775-25.426 4.27m1.688 9.039c1.291.695.298-3.278-2.681-2.583-3.179.795-3.278 3.874-3.179 5.165.795 1.49.199-3.973 5.86-2.582Z"/>
  <path fill="#E7B5AA" d="M372.064 127.626s4.27-11.521 12.017-7.349c5.96 3.277 1.093 19.367-10.826 14.202l-1.191-6.853Z"/>
  <path stroke="#A64B35" stroke-linecap="round" stroke-linejoin="round" stroke-width=".993" d="M375.54 129.017c0-8.045 7.35-6.059 7.35-6.059"/>
  <path stroke="#A64B35" stroke-linecap="round" stroke-linejoin="round" stroke-width=".993" d="M382.79 127.924s-2.483-6.356-5.76-3.675"/>
  <path stroke="#591D0B" stroke-linecap="round" stroke-miterlimit="10" stroke-width=".993" d="M373.951 94.056c13.507-1.291 19.764 6.555 16.983 23.241m-66.047-22.744c13.904 11.62 28.902-23.44 44.296-2.384"/>
  <path stroke="#591D0B" stroke-linecap="round" stroke-miterlimit="10" stroke-width=".993" d="M324.986 99.717c4.072 4.768 9.634 3.278 14.203.696m31.881-1.788c9.038-1.49 15.792 2.88 15.395 15.196"/>
  <path stroke="#3648AA" stroke-linecap="round" stroke-linejoin="round" stroke-miterlimit="10" stroke-width=".993" d="M360.642 162.984s2.185 7.052 11.223 4.271c7.846-2.384 9.932-8.343 10.23-12.415"/>
</svg>
